<?xml version="1.0" encoding="utf-8"?>
<!-- Generator: Adobe Illustrator 27.7.0, SVG Export Plug-In . SVG Version: 6.00 Build 0)  -->
<svg version="1.1" xmlns="http://www.w3.org/2000/svg" xmlns:xlink="http://www.w3.org/1999/xlink" x="0px" y="0px"
	 viewBox="0 0 302.3 638.3" style="enable-background:new 0 0 302.3 638.3;" xml:space="preserve">
<style type="text/css">
	.st0{fill:#DAD2CC;}
	.st1{opacity:0.38;fill:#B17046;}
	.st2{fill:none;}
	.st3{font-family:'Georgia'; font-weight: bold;}
	.st4{font-size:18px;}
	.st5{fill:#B17046;}
	.st6{fill:#845050;}
	.st7{fill:#280000;}
	.st8{font-family:'Roboto'; font-weight: 300}
	.st9{font-size:8px;}
	.st10{clip-path:url(#SVGID_00000049187825011985972650000005050899376119233160_);}
	.st11{clip-path:url(#SVGID_00000103980291558520509940000000182297455416968876_);}
	.st12{clip-path:url(#SVGID_00000059272687267628996970000002239438420236598924_);}
	.st13{font-size:10px;}
	.st14{font-family:'Roboto'; font-style: italic;}
	.st15{font-size:9px;}
</style>
<g id="back">
	<polygon class="st0" points="317.9,649.5 -14.3,649.5 -13.6,-14.3 318.7,-14.3 	"/>
</g>
<g id="Layer_1">
	<circle class="st1" cx="52.4" cy="106.3" r="1.2"/>
	<rect x="27.2" y="9.8" class="st2" width="275.1" height="83.6"/>
	<text transform="matrix(0.8758 0 0 1 27.2137 23.6947)"><tspan x="0" y="0" class="st3 st4">ТОП найбільших українських </tspan><tspan x="0" y="20" class="st3 st4">локацій у </tspan><tspan x="103.2" y="20" class="st5 st3 st4">російському </tspan><tspan x="0" y="40" class="st5 st3 st4">Державному історичному </tspan><tspan x="0" y="60" class="st5 st3 st4">музеї</tspan><tspan x="54.5" y="60" class="st3 st4"> та </tspan><tspan x="87.4" y="60" class="st6 st3 st4">Ермітажі </tspan></text>
	<g>
		<rect x="9.3" y="591.7" class="st2" width="156.2" height="46.6"/>
		<text transform="matrix(0.8758 0 0 1 9.2812 597.0399)"><tspan x="0" y="0" class="st7 st8 st9">Дані: онлайн-колекція Державного Ермітажу </tspan><tspan x="0" y="9.6" class="st7 st8 st9">(Санкт-Петербург, Росія) та електронний каталог </tspan><tspan x="0" y="19.2" class="st7 st8 st9">Державного Історичного музею (Москва, Росія)</tspan></text>
	</g>
	<g>
		<g>
			<defs>
				<rect id="SVGID_1_" x="175.1" y="591.7" width="120.2" height="13.9"/>
			</defs>
			<clipPath id="SVGID_00000068668337739698968330000004197525133947462018_">
				<use xlink:href="#SVGID_1_"  style="overflow:visible;"/>
			</clipPath>
			<path style="clip-path:url(#SVGID_00000068668337739698968330000004197525133947462018_);" d="M244.4,598.7
				c0-1.8-0.4-3.2-1.2-4.3c-0.8-1.1-1.9-1.6-3.3-1.6c-1.4,0-2.5,0.6-3.3,1.8c-0.7,1.1-1.1,2.4-1.1,4.1c0,1.7,0.3,3.1,1,4.1
				c0.8,1.2,1.9,1.8,3.5,1.8c1.5,0,2.6-0.6,3.4-1.8C244.1,601.7,244.4,600.3,244.4,598.7 M245.5,598.7c0,1.9-0.4,3.5-1.3,4.7
				c-1,1.5-2.5,2.2-4.3,2.2c-1.7,0-3.1-0.6-4.1-1.9c-1-1.3-1.5-3-1.5-5.1c0-2,0.5-3.6,1.4-4.8c1-1.4,2.4-2.1,4.2-2.1
				c1.8,0,3.2,0.7,4.2,2C245.1,595,245.5,596.7,245.5,598.7"/>
		</g>
		<polygon points="228.8,592 226.2,597.5 223.6,592 220.3,592 224.8,600.3 224.8,605.6 227.6,605.6 227.6,600.4 232,592 		"/>
		<polygon points="209.1,592 209.1,594.6 213,594.6 213,605.6 215.9,605.6 215.9,594.6 219.8,594.6 219.8,592 		"/>
		<polygon points="205.3,592 202.7,596.4 200.1,592 196.8,592 201,598.5 196.4,605.6 199.7,605.6 202.6,600.9 205.4,605.6 
			208.9,605.6 204.3,598.5 208.5,592 		"/>
		<polygon points="187,592 187,605.6 195.3,605.6 195.3,603.1 189.9,603.1 189.9,599.8 194.7,599.8 194.7,597.4 189.9,597.4 
			189.9,594.5 195.2,594.5 195.2,592 		"/>
		<polygon points="175.1,592 175.1,594.6 179.1,594.6 179.1,605.6 181.9,605.6 181.9,594.6 185.9,594.6 185.9,592 		"/>
		<g>
			<defs>
				<rect id="SVGID_00000008839967366031123970000006537531587532027272_" x="175.1" y="591.7" width="120.2" height="13.9"/>
			</defs>
			<clipPath id="SVGID_00000168095409893947226770000011414733519306287238_">
				<use xlink:href="#SVGID_00000008839967366031123970000006537531587532027272_"  style="overflow:visible;"/>
			</clipPath>
			<path style="clip-path:url(#SVGID_00000168095409893947226770000011414733519306287238_);" d="M268.7,605.3h-1V603
				c-0.4,0.9-1,1.5-1.8,1.9c-0.7,0.4-1.6,0.7-2.7,0.7c-1.8,0-3.1-0.7-4-2c-0.9-1.2-1.3-2.9-1.3-5c0-2.1,0.5-3.8,1.4-5
				c1-1.3,2.4-1.9,4.1-1.9c1.3,0,2.4,0.4,3.3,1.1c0.9,0.7,1.5,1.7,1.7,3.1h-1.2c-0.2-1-0.7-1.7-1.4-2.3c-0.7-0.5-1.5-0.8-2.4-0.8
				c-1.5,0-2.6,0.6-3.4,1.7c-0.7,1.1-1.1,2.6-1.1,4.5c0,1.6,0.4,2.8,1.2,3.9c0.8,1.1,1.9,1.6,3.2,1.6c1.2,0,2.1-0.4,2.9-1.2
				c0.4-0.4,0.7-1,0.9-1.6c0.2-0.6,0.3-1.4,0.3-2.2h-4.1v-1.1h5.2V605.3z"/>
			<path style="clip-path:url(#SVGID_00000168095409893947226770000011414733519306287238_);" d="M283.8,600.1
				c0,1.9-0.4,3.2-1.3,4.2c-0.8,0.9-2,1.4-3.6,1.4c-1.5,0-2.6-0.4-3.5-1.2c-0.9-0.9-1.4-2.4-1.4-4.3V592h1.2v7.7
				c0,1.7,0.3,2.9,0.9,3.6c0.6,0.7,1.5,1.1,2.8,1.1c1.2,0,2.1-0.3,2.7-1c0.6-0.7,1-2,1-3.7V592h1.2V600.1z"/>
		</g>
		<path d="M289.8,593.1l2.5,7.1h-4.9L289.8,593.1z M289.2,592.1l-4.9,13.6l1.2,0l1.5-4.3h5.7l1.4,4.3l1.2,0l-4.8-13.6H289.2z"/>
		<g>
			<defs>
				<rect id="SVGID_00000007387922391318884510000009883031860347024785_" x="175.1" y="591.7" width="120.2" height="13.9"/>
			</defs>
			<clipPath id="SVGID_00000127725728726385735040000008370320164207948723_">
				<use xlink:href="#SVGID_00000007387922391318884510000009883031860347024785_"  style="overflow:visible;"/>
			</clipPath>
			<path style="clip-path:url(#SVGID_00000127725728726385735040000008370320164207948723_);" d="M233.5,604.4
				c0,0.7-0.5,1.2-1.2,1.2c-0.7,0-1.2-0.5-1.2-1.2s0.5-1.2,1.2-1.2C233,603.2,233.5,603.7,233.5,604.4"/>
			<path style="clip-path:url(#SVGID_00000127725728726385735040000008370320164207948723_);" d="M273.4,604.4
				c0,0.7-0.5,1.2-1.2,1.2c-0.7,0-1.2-0.5-1.2-1.2s0.5-1.2,1.2-1.2C272.8,603.2,273.4,603.7,273.4,604.4"/>
			<path style="clip-path:url(#SVGID_00000127725728726385735040000008370320164207948723_);" d="M248.8,593h3.8
				c1.1,0,1.9,0.3,2.4,0.8c0.4,0.4,0.6,1,0.6,1.8c0,0.9-0.3,2-0.8,2.4c-0.6,0.5-1.3,0.7-2.2,0.7h-3.7V593z M257.4,605.6l-3.8-5.9
				c0.4-0.1,0.7-0.2,1.1-0.4c1.8-0.8,2-2.9,2-3.8c0-1.3-0.4-2.2-1.1-2.8c-0.7-0.5-1.7-0.8-3.1-0.8h-4.9v13.7h1.2v-5.8h3.5l3.7,5.8
				L257.4,605.6z"/>
		</g>
	</g>
</g>
<g id="text">
	<g>
		<g>
			<g>
				<rect x="28.3" y="123.2" class="st5" width="267.6" height="7"/>
				<rect x="28.3" y="142.7" class="st5" width="170.3" height="7"/>
				<rect x="28.3" y="162.2" class="st5" width="159.7" height="7"/>
				<rect x="28.3" y="181.8" class="st5" width="101.4" height="7"/>
				<rect x="28.3" y="201.3" class="st5" width="91.7" height="7"/>
				<rect x="28.3" y="220.9" class="st5" width="65.9" height="7"/>
				<rect x="28.3" y="240.4" class="st5" width="61.6" height="7"/>
				<rect x="28.3" y="259.9" class="st5" width="56.9" height="7"/>
				<rect x="28.3" y="279.5" class="st5" width="56.8" height="7"/>
				<rect x="28.3" y="299" class="st5" width="50.1" height="7"/>
				<rect x="28.3" y="318.6" class="st5" width="44.1" height="7"/>
				<rect x="28.3" y="338.1" class="st5" width="44.1" height="7"/>
			</g>
		</g>
	</g>
	<g>
		<g>
			<g>
				<rect x="28.3" y="383.9" class="st6" width="153.4" height="7"/>
				<rect x="28.3" y="403.4" class="st6" width="140.6" height="7"/>
				<rect x="28.3" y="422.9" class="st6" width="82.5" height="7"/>
				<rect x="28.3" y="442.5" class="st6" width="73.4" height="7"/>
				<rect x="28.3" y="462" class="st6" width="71.1" height="7"/>
				<rect x="28.3" y="481.6" class="st6" width="40.7" height="7"/>
				<rect x="28.3" y="501.1" class="st6" width="28.2" height="7"/>
				<rect x="28.3" y="520.6" class="st6" width="11.2" height="7"/>
				<rect x="28.3" y="540.2" class="st6" width="9.2" height="7"/>
				<rect x="28.3" y="559.7" class="st6" width="8.1" height="7"/>
			</g>
		</g>
	</g>
	<rect x="27.2" y="113.9" class="st2" width="290.7" height="232.3"/>
	<text transform="matrix(0.8758 0 0 1 27.2132 121.2218)"><tspan x="0" y="0" class="st7 st8 st13">Херсонес Таврійський (Крим), V ст. до н.е. – XIII ст.</tspan><tspan x="0" y="19.5" class="st7 st8 st13">Вишгород (Київщина),  X–XVI ст.</tspan><tspan x="0" y="39" class="st7 st8 st13">Судак (Крим), XIII–XIV ст.</tspan><tspan x="0" y="58.5" class="st7 st8 st13">Багатошарові стоянки Заміль-Коба (Крим),  X–I тис. до н.е. </tspan><tspan x="0" y="78" class="st7 st8 st13">Пушкарівське городище (Чернігівщина), V–III ст. до н.е.</tspan><tspan x="0" y="97.5" class="st7 st8 st13">Верхній Салтів (Харківщина), VIII–IX ст.</tspan><tspan x="0" y="117" class="st7 st8 st13">Городище Бакла (Крим), V–XVIII ст.</tspan><tspan x="0" y="136.5" class="st7 st8 st13">Стоянка Таш-Аїр (Крим), VI–I тис. до н.е.</tspan><tspan x="0" y="156" class="st7 st8 st13">Неаполь Скіфський (Сімферополь, Крим), III–II ст. до н.е.</tspan><tspan x="0" y="175.5" class="st7 st8 st13">Поселення Успенка (Кіровоградщина), ІІІ ст.</tspan><tspan x="0" y="195" class="st7 st8 st13">Кам&apos;янське городище (Запорізька область), V–III ст. до н.е.</tspan><tspan x="0" y="214.5" class="st7 st8 st13">Стоянки поблизу села Володимирівка (Черкащина), IV тис. до н.е.</tspan></text>
	<rect x="27.2" y="374.5" class="st2" width="290.7" height="190.8"/>
	<text transform="matrix(0.8758 0 0 1 27.2132 381.8018)"><tspan x="0" y="0" class="st7 st8 st13">Пантікапей (Керч і околиці), IV ст. до н.е. – ІІІ ст.</tspan><tspan x="0" y="19.5" class="st7 st8 st13">Острів Березань (Миколаївщина), VI ст. до н.е. – III ст. н.e.</tspan><tspan x="0" y="39" class="st7 st8 st13">Мірмекій (поблизу Керчі), V ст. до н.е. – III ст.</tspan><tspan x="0" y="58.5" class="st7 st8 st13">Німфей, Крим (Керч), IV ст. до н.е. – V ст.</tspan><tspan x="0" y="78" class="st7 st8 st13">Немирівське скіфське городище (Вінничина), VIIІ ст. до н.е.</tspan><tspan x="0" y="97.5" class="st7 st8 st13">Стоянка Стінка (Буковина), CXX–X тис. до н.е.</tspan><tspan x="0" y="117" class="st7 st8 st13">Поселення поблизу села Городище (Хмельниччина), XI–XIII cт.</tspan><tspan x="0" y="136.5" class="st7 st8 st13">Красноставка (Черкащина), енеоліт</tspan><tspan x="0" y="156" class="st7 st8 st13">Стоянка поблизу урочища Кишлянський Яр (Буковина), палеоліт</tspan><tspan x="0" y="175.5" class="st7 st8 st13">Кургани біля села Журівка (Миколаївщина), VII–VI ст. до н.е.</tspan></text>
	<rect x="-9" y="121.8" class="st2" width="33.3" height="236.3"/>
	<text transform="matrix(0.8758 0 0 1 2.3897 128.3417)"><tspan x="0" y="0" class="st5 st14 st15">12065</tspan><tspan x="5" y="19.5" class="st5 st14 st15">7678</tspan><tspan x="5" y="39" class="st5 st14 st15">7199</tspan><tspan x="5" y="58.5" class="st5 st14 st15">4570</tspan><tspan x="5" y="78" class="st5 st14 st15">4133</tspan><tspan x="5" y="97.5" class="st5 st14 st15">2972</tspan><tspan x="5" y="117" class="st5 st14 st15">2775</tspan><tspan x="5" y="136.5" class="st5 st14 st15">2567</tspan><tspan x="5" y="156" class="st5 st14 st15">2559</tspan><tspan x="5" y="175.5" class="st5 st14 st15">2258</tspan><tspan x="5" y="195" class="st5 st14 st15">1990</tspan><tspan x="5" y="214.5" class="st5 st14 st15">1987</tspan></text>
	<rect x="-9" y="383.9" class="st2" width="33.3" height="188.8"/>
	<text transform="matrix(0.8758 0 0 1 6.7735 390.4448)"><tspan x="0" y="0" class="st6 st14 st15">6917</tspan><tspan x="0" y="19.5" class="st6 st14 st15">6340</tspan><tspan x="0" y="39" class="st6 st14 st15">3718</tspan><tspan x="0" y="58.5" class="st6 st14 st15">3311</tspan><tspan x="0" y="78" class="st6 st14 st15">3204</tspan><tspan x="0" y="97.5" class="st6 st14 st15">1837</tspan><tspan x="0" y="117" class="st6 st14 st15">1270</tspan><tspan x="5" y="136.5" class="st6 st14 st15">504</tspan><tspan x="5" y="156" class="st6 st14 st15">415</tspan><tspan x="5" y="175.5" class="st6 st14 st15">366</tspan></text>
</g>
</svg>
