<?xml version="1.0" encoding="utf-8"?>
<!-- Generator: Adobe Illustrator 27.7.0, SVG Export Plug-In . SVG Version: 6.00 Build 0)  -->
<svg version="1.1" id="Layer_1" xmlns="http://www.w3.org/2000/svg" xmlns:xlink="http://www.w3.org/1999/xlink" x="0px" y="0px"
	 viewBox="0 0 302.3 613" style="enable-background:new 0 0 302.3 613;" xml:space="preserve">
<style type="text/css">
	.st0{fill:#DAD2CC;}
	.st1{opacity:0.38;fill:#B17046;enable-background:new    ;}
	.st2{fill:none;}
	.st3{font-family:'Georgia-Italic';}
	.st4{font-size:11px;}
	.st5{fill:#845050;}
	.st6{fill:#B17046;}
	.st7{fill:#280000;}
	.st8{font-family:'ProximaNova-Light';}
	.st9{font-size:8px;}
	.st10{clip-path:url(#SVGID_00000076587370540232269290000012563907774318654861_);}
	.st11{clip-path:url(#SVGID_00000078032867002384497060000000789142995198990732_);}
	.st12{clip-path:url(#SVGID_00000114774032834585857480000006609734798210018206_);}
	.st13{clip-path:url(#SVGID_00000018947251683672231100000005033043477685761159_);}
	.st14{clip-path:url(#SVGID_00000067944635325362497990000007598636466556057759_);}
	.st15{clip-path:url(#SVGID_00000075137741435178046770000011565557319488377504_);}
	.st16{font-size:9px;}
	.st17{fill:#7F200C;}
	.st18{font-family:'Georgia-Bold';}
	.st19{font-size:12px;}
</style>
<g id="back">
	<polygon class="st0" points="317.9,624.2 -14.3,624.2 -13.6,-39.6 318.7,-39.6 	"/>
</g>
<g id="Layer_1_00000003817202338420241210000008775720494489760646_">
	<circle class="st1" cx="59.4" cy="81" r="1.2"/>
	<rect x="35" y="40.4" class="st2" width="260.1" height="41.8"/>
	<text transform="matrix(1 0 0 1 35.0207 48.7248)" class="st3 st4">Топ-10 українських локацій за кількістю </text>
	<text transform="matrix(1 0 0 1 35.0207 61.9248)" class="st3 st4">знахідок в </text>
	<text transform="matrix(1 0 0 1 90.4207 61.9248)" class="st5 st3 st4">Ермітажі </text>
	<text transform="matrix(1 0 0 1 147.1207 61.9248)" class="st3 st4">і топ-12 в </text>
	<text transform="matrix(1 0 0 1 201.1207 61.9248)" class="st6 st3 st4">Державному </text>
	<text transform="matrix(1 0 0 1 35.0207 75.1248)" class="st6 st3 st4">історичному музеї Росії</text>
	<g>
		<rect x="35" y="557" class="st2" width="268.3" height="23.3"/>
		<text transform="matrix(0.8758 0 0 1 35.0205 562.3474)" class="st7 st8 st9">Дані: онлайн-колекція Державного Ермітажу (Санкт-Петербург, Росія) та </text>
		<text transform="matrix(0.8758 0 0 1 35.0205 571.947)" class="st7 st8 st9">електронний каталог Державного Історичного музею (Москва, Росія)</text>
	</g>
	<g>
		<g>
			<g>
				<defs>
					<rect id="SVGID_1_" x="35" y="584.2" width="120.2" height="13.9"/>
				</defs>
				<clipPath id="SVGID_00000121245261493289343260000012191624698618778302_">
					<use xlink:href="#SVGID_1_"  style="overflow:visible;"/>
				</clipPath>
				<path style="clip-path:url(#SVGID_00000121245261493289343260000012191624698618778302_);" d="M104.3,591.2
					c0-1.8-0.4-3.2-1.2-4.3c-0.8-1.1-1.9-1.6-3.3-1.6s-2.5,0.6-3.3,1.8c-0.7,1.1-1.1,2.4-1.1,4.1c0,1.7,0.3,3.1,1,4.1
					c0.8,1.2,1.9,1.8,3.5,1.8c1.5,0,2.6-0.6,3.4-1.8C103.9,594.1,104.3,592.8,104.3,591.2 M105.4,591.2c0,1.9-0.4,3.5-1.3,4.7
					c-1,1.5-2.5,2.2-4.3,2.2c-1.7,0-3.1-0.6-4.1-1.9c-1-1.3-1.5-3-1.5-5.1c0-2,0.5-3.6,1.4-4.8c1-1.4,2.4-2.1,4.2-2.1
					c1.8,0,3.2,0.7,4.2,2C104.9,587.5,105.4,589.1,105.4,591.2"/>
			</g>
		</g>
		<polygon points="88.7,584.5 86.1,589.9 83.5,584.5 80.2,584.5 84.6,592.8 84.6,598.1 87.5,598.1 87.5,592.9 91.9,584.5 		"/>
		<polygon points="68.9,584.5 68.9,587 72.9,587 72.9,598.1 75.7,598.1 75.7,587 79.6,587 79.6,584.5 		"/>
		<polygon points="65.2,584.5 62.6,588.9 60,584.5 56.7,584.5 60.9,591 56.3,598.1 59.6,598.1 62.5,593.4 65.3,598.1 68.7,598.1 
			64.2,591 68.4,584.5 		"/>
		<polygon points="46.9,584.5 46.9,598.1 55.2,598.1 55.2,595.6 49.7,595.6 49.7,592.3 54.5,592.3 54.5,589.9 49.7,589.9 49.7,587 
			55.1,587 55.1,584.5 		"/>
		<polygon points="35,584.5 35,587 38.9,587 38.9,598.1 41.8,598.1 41.8,587 45.7,587 45.7,584.5 		"/>
		<g>
			<g>
				<defs>
					<rect id="SVGID_00000054950954545884068450000006856452073699178135_" x="35" y="584.2" width="120.2" height="13.9"/>
				</defs>
				<clipPath id="SVGID_00000080915528787357364020000000967235975690909609_">
					<use xlink:href="#SVGID_00000054950954545884068450000006856452073699178135_"  style="overflow:visible;"/>
				</clipPath>
				<path style="clip-path:url(#SVGID_00000080915528787357364020000000967235975690909609_);" d="M128.6,597.7h-1v-2.3
					c-0.4,0.9-1,1.5-1.8,1.9c-0.7,0.4-1.6,0.7-2.7,0.7c-1.8,0-3.1-0.7-4-2c-0.9-1.2-1.3-2.9-1.3-5s0.5-3.8,1.4-5
					c1-1.3,2.4-1.9,4.1-1.9c1.3,0,2.4,0.4,3.3,1.1c0.9,0.7,1.5,1.7,1.7,3.1h-1.2c-0.2-1-0.7-1.7-1.4-2.3s-1.5-0.8-2.4-0.8
					c-1.5,0-2.6,0.6-3.4,1.7c-0.7,1.1-1.1,2.6-1.1,4.5c0,1.6,0.4,2.8,1.2,3.9c0.8,1.1,1.9,1.6,3.2,1.6c1.2,0,2.1-0.4,2.9-1.2
					c0.4-0.4,0.7-1,0.9-1.6c0.2-0.6,0.3-1.4,0.3-2.2h-4.1v-1.1h5.2v6.9H128.6z"/>
			</g>
			<g>
				<defs>
					<rect id="SVGID_00000033330799305153536240000004353282932344869021_" x="35" y="584.2" width="120.2" height="13.9"/>
				</defs>
				<clipPath id="SVGID_00000092437733964796398340000007877420233406612874_">
					<use xlink:href="#SVGID_00000033330799305153536240000004353282932344869021_"  style="overflow:visible;"/>
				</clipPath>
				<path style="clip-path:url(#SVGID_00000092437733964796398340000007877420233406612874_);" d="M143.7,592.5
					c0,1.9-0.4,3.2-1.3,4.2c-0.8,0.9-2,1.4-3.6,1.4c-1.5,0-2.6-0.4-3.5-1.2c-0.9-0.9-1.4-2.4-1.4-4.3v-8.1h1.2v7.7
					c0,1.7,0.3,2.9,0.9,3.6c0.6,0.7,1.5,1.1,2.8,1.1c1.2,0,2.1-0.3,2.7-1c0.6-0.7,1-2,1-3.7v-7.8h1.2L143.7,592.5L143.7,592.5z"/>
			</g>
		</g>
		<path d="M149.7,585.6l2.5,7.1h-4.9L149.7,585.6z M149,584.5l-4.9,13.6h1.2l1.5-4.3h5.7l1.4,4.3h1.2l-4.8-13.6H149z"/>
		<g>
			<g>
				<defs>
					<rect id="SVGID_00000163039754724930183410000015388301577378820497_" x="35" y="584.2" width="120.2" height="13.9"/>
				</defs>
				<clipPath id="SVGID_00000147210400883703485850000002777369110160466346_">
					<use xlink:href="#SVGID_00000163039754724930183410000015388301577378820497_"  style="overflow:visible;"/>
				</clipPath>
				<path style="clip-path:url(#SVGID_00000147210400883703485850000002777369110160466346_);" d="M93.4,596.9
					c0,0.7-0.5,1.2-1.2,1.2s-1.2-0.5-1.2-1.2s0.5-1.2,1.2-1.2C92.9,595.6,93.4,596.2,93.4,596.9"/>
			</g>
			<g>
				<defs>
					<rect id="SVGID_00000071558787291027103070000011842830015562822076_" x="35" y="584.2" width="120.2" height="13.9"/>
				</defs>
				<clipPath id="SVGID_00000039853053281986099850000007040211823761155518_">
					<use xlink:href="#SVGID_00000071558787291027103070000011842830015562822076_"  style="overflow:visible;"/>
				</clipPath>
				<path style="clip-path:url(#SVGID_00000039853053281986099850000007040211823761155518_);" d="M133.2,596.9
					c0,0.7-0.5,1.2-1.2,1.2s-1.2-0.5-1.2-1.2s0.5-1.2,1.2-1.2C132.7,595.6,133.2,596.2,133.2,596.9"/>
			</g>
			<g>
				<defs>
					<rect id="SVGID_00000055677607530513779490000013304859118125546888_" x="35" y="584.2" width="120.2" height="13.9"/>
				</defs>
				<clipPath id="SVGID_00000047057584128518480800000013579652504116310179_">
					<use xlink:href="#SVGID_00000055677607530513779490000013304859118125546888_"  style="overflow:visible;"/>
				</clipPath>
				<path style="clip-path:url(#SVGID_00000047057584128518480800000013579652504116310179_);" d="M108.6,585.5h3.8
					c1.1,0,1.9,0.3,2.4,0.8c0.4,0.4,0.6,1,0.6,1.8c0,0.9-0.3,2-0.8,2.4c-0.6,0.5-1.3,0.7-2.2,0.7h-3.7v-5.7H108.6z M117.2,598.1
					l-3.8-5.9c0.4-0.1,0.7-0.2,1.1-0.4c1.8-0.8,2-2.9,2-3.8c0-1.3-0.4-2.2-1.1-2.8c-0.7-0.5-1.7-0.8-3.1-0.8h-4.9v13.7h1.2v-5.8h3.5
					l3.7,5.8H117.2z"/>
			</g>
		</g>
	</g>
</g>
<g id="text">
	<g>
		<g>
			<g>
				<rect x="35.3" y="97.8" class="st6" width="267.6" height="7"/>
				<rect x="35.3" y="117.4" class="st6" width="170.3" height="7"/>
				<rect x="35.3" y="136.9" class="st6" width="159.7" height="7"/>
				<rect x="35.3" y="156.5" class="st6" width="101.4" height="7"/>
				<rect x="35.3" y="176" class="st6" width="91.7" height="7"/>
				<rect x="35.3" y="195.5" class="st6" width="65.9" height="7"/>
				<rect x="35.3" y="215.1" class="st6" width="61.6" height="7"/>
				<rect x="35.3" y="234.6" class="st6" width="56.9" height="7"/>
				<rect x="35.3" y="254.2" class="st6" width="56.8" height="7"/>
				<rect x="35.3" y="273.7" class="st6" width="50.1" height="7"/>
				<rect x="35.3" y="293.2" class="st6" width="44.1" height="7"/>
				<rect x="35.3" y="312.8" class="st6" width="44.1" height="7"/>
			</g>
		</g>
	</g>
	<g>
		<g>
			<g>
				<rect x="35.3" y="358.5" class="st5" width="153.4" height="7"/>
				<rect x="35.3" y="378.1" class="st5" width="140.6" height="7"/>
				<rect x="35.3" y="397.6" class="st5" width="82.5" height="7"/>
				<rect x="35.3" y="417.2" class="st5" width="73.4" height="7"/>
				<rect x="35.3" y="436.7" class="st5" width="71.1" height="7"/>
				<rect x="35.3" y="456.2" class="st5" width="40.7" height="7"/>
				<rect x="35.3" y="475.8" class="st5" width="28.2" height="7"/>
				<rect x="35.3" y="495.3" class="st5" width="11.2" height="7"/>
				<rect x="35.3" y="514.9" class="st5" width="9.2" height="7"/>
				<rect x="35.3" y="534.4" class="st5" width="8.1" height="7"/>
			</g>
		</g>
	</g>
	<rect x="34.2" y="88.6" class="st2" width="290.7" height="232.3"/>
	<text transform="matrix(1 0 0 1 34.2132 94.5899)" class="st7 st8 st16">Херсонес Таврійський (Крим), V ст. до н.е. – XIII ст.</text>
	<text transform="matrix(1 0 0 1 34.2132 114.0899)" class="st7 st8 st16">Вишгород (Київщина),  X–XVI ст.</text>
	<text transform="matrix(1 0 0 1 34.2132 133.5899)" class="st7 st8 st16">Судак (Крим), XIII–XIV ст.</text>
	<text transform="matrix(1 0 0 1 34.2132 153.0899)" class="st7 st8 st16">Багатошарові стоянки Заміль-Коба (Крим),  X–I тис. до н.е. </text>
	<text transform="matrix(1 0 0 1 34.2132 172.5899)" class="st7 st8 st16">Пушкарівське городище (Чернігівщина), V–III ст. до н.е.</text>
	<text transform="matrix(1 0 0 1 34.2132 192.0899)" class="st7 st8 st16">Верхній Салтів (Харківщина), VIII–IX ст.</text>
	<text transform="matrix(1 0 0 1 34.2132 211.5899)" class="st7 st8 st16">Городище Бакла (Крим), V–XVIII ст.</text>
	<text transform="matrix(1 0 0 1 34.2132 231.0899)" class="st7 st8 st16">Стоянка Таш-Аїр (Крим), VI–I тис. до н.е.</text>
	<text transform="matrix(1 0 0 1 34.2132 250.5899)" class="st7 st8 st16">Неаполь Скіфський (Сімферополь, Крим), III–II ст. до н.е.</text>
	<text transform="matrix(1 0 0 1 34.2132 270.0899)" class="st7 st8 st16">Поселення Успенка (Кіровоградщина), ІІІ ст.</text>
	<text transform="matrix(1 0 0 1 34.2132 289.5899)" class="st7 st8 st16">Кам&apos;янське городище (Запорізька область), V–III ст. до н.е.</text>
	<text transform="matrix(1 0 0 1 34.2132 309.0899)" class="st7 st8 st16">Стоянки поблизу села Володимирівка (Черкащина), IV тис. до н.е.</text>
	<rect x="34.2" y="349.1" class="st2" width="290.7" height="190.8"/>
	<text transform="matrix(1 0 0 1 34.2132 355.1699)" class="st7 st8 st16">Пантікапей (Керч і околиці), IV ст. до н.е. – ІІІ ст.</text>
	<text transform="matrix(1 0 0 1 34.2132 374.6699)" class="st7 st8 st16">Острів Березань (Миколаївщина), VI ст. до н.е. – III ст. н.e.</text>
	<text transform="matrix(1 0 0 1 34.2132 394.1699)" class="st7 st8 st16">Мірмекій (поблизу Керчі), V ст. до н.е. – III ст.</text>
	<text transform="matrix(1 0 0 1 34.2132 413.6699)" class="st7 st8 st16">Німфей, Крим (Керч), IV ст. до н.е. – V ст.</text>
	<text transform="matrix(1 0 0 1 34.2132 433.1699)" class="st7 st8 st16">Немирівське скіфське городище (Вінничина), VIIІ ст. до н.е.</text>
	<text transform="matrix(1 0 0 1 34.2132 452.6699)" class="st7 st8 st16">Стоянка Стінка (Буковина), CXX–X тис. до н.е.</text>
	<text transform="matrix(1 0 0 1 34.2132 472.1699)" class="st7 st8 st16">Поселення поблизу села Городище (Хмельниччина), XI–XIII cт.</text>
	<text transform="matrix(1 0 0 1 34.2132 491.6699)" class="st7 st8 st16">Красноставка (Черкащина), енеоліт</text>
	<text transform="matrix(1 0 0 1 34.2132 511.1699)" class="st7 st8 st16">Стоянка поблизу урочища Кишлянський Яр (Буковина), палеоліт</text>
	<text transform="matrix(1 0 0 1 34.2132 530.6699)" class="st7 st8 st16">Кургани біля села Журівка (Миколаївщина), VII–VI ст. до н.е.</text>
	<rect x="-2" y="96.4" class="st2" width="33.3" height="236.3"/>
	<text transform="matrix(1 0 0 1 9.7373 102.5038)" class="st6 st3 st9">12065</text>
	<text transform="matrix(1 0 0 1 14.0373 122.0038)" class="st6 st3 st9">7678</text>
	<text transform="matrix(1 0 0 1 14.8373 141.5038)" class="st6 st3 st9">7199</text>
	<text transform="matrix(1 0 0 1 13.6373 161.0038)" class="st6 st3 st9">4570</text>
	<text transform="matrix(1 0 0 1 14.5373 180.5038)" class="st6 st3 st9">4133</text>
	<text transform="matrix(1 0 0 1 13.8373 200.0038)" class="st6 st3 st9">2972</text>
	<text transform="matrix(1 0 0 1 14.6373 219.5038)" class="st6 st3 st9">2775</text>
	<text transform="matrix(1 0 0 1 14.1373 239.0038)" class="st6 st3 st9">2567</text>
	<text transform="matrix(1 0 0 1 13.8373 258.5038)" class="st6 st3 st9">2559</text>
	<text transform="matrix(1 0 0 1 13.3373 278.0038)" class="st6 st3 st9">2258</text>
	<text transform="matrix(1 0 0 1 13.9373 297.5038)" class="st6 st3 st9">1990</text>
	<text transform="matrix(1 0 0 1 14.6373 317.0038)" class="st6 st3 st9">1987</text>
	<rect x="-2" y="358.5" class="st2" width="33.3" height="188.8"/>
	<text transform="matrix(1 0 0 1 14.8428 364.6069)" class="st5 st3 st9">6917</text>
	<text transform="matrix(1 0 0 1 12.9428 384.1069)" class="st5 st3 st9">6340</text>
	<text transform="matrix(1 0 0 1 14.7428 403.6069)" class="st5 st3 st9">3718</text>
	<text transform="matrix(1 0 0 1 15.6428 423.1069)" class="st5 st3 st9">3311</text>
	<text transform="matrix(1 0 0 1 13.0428 442.6069)" class="st5 st3 st9">3204</text>
	<text transform="matrix(1 0 0 1 14.7428 462.1069)" class="st5 st3 st9">1837</text>
	<text transform="matrix(1 0 0 1 14.5428 481.6069)" class="st5 st3 st9">1270</text>
	<text transform="matrix(1 0 0 1 17.6428 501.1069)" class="st5 st3 st9">504</text>
	<text transform="matrix(1 0 0 1 19.1428 520.6069)" class="st5 st3 st9">415</text>
	<text transform="matrix(1 0 0 1 17.8428 540.1069)" class="st5 st3 st9">366</text>
</g>
<rect x="34.2" y="19.7" class="st2" width="268.1" height="25.4"/>
<text transform="matrix(1 0 0 1 34.2 28.8158)" class="st17 st18 st19">ЗВІДКИ НАЙБІЛЬШЕ ВИВЕЗЛИ</text>
</svg>
